<?xml version="1.0" encoding="utf-8"?>
<!-- Generator: Adobe Illustrator 15.1.0, SVG Export Plug-In . SVG Version: 6.00 Build 0)  -->
<!DOCTYPE svg PUBLIC "-//W3C//DTD SVG 1.1//EN" "http://www.w3.org/Graphics/SVG/1.1/DTD/svg11.dtd">
<svg version="1.1" id="Vrstva_1" xmlns="http://www.w3.org/2000/svg" xmlns:xlink="http://www.w3.org/1999/xlink" x="0px" y="0px"
	 width="277.816px" height="127.559px" viewBox="0 0 277.816 127.559" enable-background="new 0 0 277.816 127.559"
	 xml:space="preserve">
<g>
	<polygon fill="#005CAA" points="84.973,49.058 84.973,78.514 110.473,63.779 84.973,49.058 	"/>
	<path fill="#005CAA" d="M0,127.559l37.089-21.404c-10.364-3.465-17.818-11.171-17.947-24.49V37.597h19.066v43.118
		c0.293,8.771,4.875,14.307,13.846,14.307c2.536,0,4.706-0.463,6.545-1.293l2.003-1.156c3.34-2.427,5.104-6.541,5.285-11.857V38.061
		h0.042L0,0V127.559L0,127.559z"/>
	<path fill="#005CAA" d="M137.83,99.883h3.977l3.973-15.012h-3.445l-2.113,9.727c-0.191,0.951-0.297,1.607-0.359,2.283h-0.084
		c-0.064-0.676-0.172-1.332-0.359-2.283l-2.115-9.727h-3.447L137.83,99.883L137.83,99.883z M159.078,84.871h-5.432v15.012h3.275
		v-5.559h2.176c3.068,0,4.865-1.735,4.865-4.78C163.963,86.627,162.166,84.871,159.078,84.871L159.078,84.871z M158.486,92.018
		h-1.564v-4.84h1.564c1.332,0,2.029,0.761,2.029,2.366C160.516,91.172,159.797,92.018,158.486,92.018L158.486,92.018z
		 M166.332,99.883h8.201v-2.748h-4.926V84.871h-3.275V99.883L166.332,99.883z M176.551,97.494v2.389h9.748v-2.621h-6.047
		l5.771-10.022v-2.368h-9.219v2.644h5.582L176.551,97.494L176.551,97.494z M188.82,99.883h3.021v-7.822
		c0-1.014-0.02-2.113-0.041-2.896h0.041c0.148,0.888,0.34,1.628,0.764,2.516l4.016,8.203h3.299V84.871h-3.004v7.316
		c0,1.016,0,2.007,0.043,3.002h-0.043c-0.168-1.036-0.379-1.733-0.738-2.494l-3.785-7.824h-3.572V99.883L188.82,99.883z
		 M206.621,99.883V84.871h-3.277v15.012H206.621L206.621,99.883z"/>
	<path fill="#005CAA" d="M134.934,57.225v10.548c0,2.961,1.967,4.821,5.35,4.821c3.404,0,5.35-1.86,5.35-4.821V57.225h-3.258v10.403
		c0,1.415-0.781,2.261-2.092,2.261s-2.072-0.846-2.072-2.261V57.225H134.934L134.934,57.225z M148.951,72.236h3.023v-7.823
		c0-1.014-0.021-2.113-0.041-2.895h0.041c0.148,0.887,0.338,1.628,0.76,2.516l4.018,8.203h3.299v-15.01h-3.002v7.315
		c0,1.016,0,2.009,0.043,3.003h-0.043c-0.17-1.035-0.381-1.734-0.74-2.495l-3.783-7.823h-3.574V72.236L148.951,72.236z
		 M166.752,72.236v-15.01h-3.277v15.01H166.752L166.752,72.236z M172.992,72.236h3.973l3.977-15.01h-3.447l-2.113,9.726
		c-0.189,0.95-0.297,1.605-0.359,2.282h-0.086c-0.063-0.677-0.168-1.332-0.359-2.282l-2.113-9.726h-3.447L172.992,72.236
		L172.992,72.236z M186.504,69.762v-3.994h5.012v-2.454h-5.012v-3.615h5.328v-2.474h-8.605v15.01h8.754v-2.474H186.504
		L186.504,69.762z M202.004,72.236h3.508l-2.705-6.532c1.545-0.614,2.41-2.008,2.41-3.975c0-2.769-1.521-4.503-5.01-4.503h-5.35
		v15.01h3.277v-5.941h1.648L202.004,72.236L202.004,72.236z M198.135,64.16v-4.673h1.584c1.461,0,2.053,0.762,2.053,2.241
		c0,1.522-0.613,2.432-2.053,2.432H198.135L198.135,64.16z M207.623,69.846v2.39h9.746v-2.622h-6.047l5.771-10.021v-2.368h-9.217
		v2.643h5.582L207.623,69.846L207.623,69.846z M223.158,72.236v-15.01h-3.277v15.01H223.158L223.158,72.236z M235.941,57.225
		h-10.508v2.685h3.613v12.325h3.277V59.91h3.617V57.225L235.941,57.225z M245.121,72.236h3.299l-4.207-15.01h-3.996l-4.227,15.01
		h3.297l0.846-3.487h4.145L245.121,72.236L245.121,72.236z M240.703,66.401l1.057-4.418c0.17-0.698,0.316-1.291,0.424-2.157h0.041
		c0.127,0.866,0.275,1.458,0.424,2.157l1.057,4.418H240.703L240.703,66.401z"/>
	<path fill="#005CAA" d="M134.363,42.2v2.389h9.748v-2.623h-6.047l5.771-10.021v-2.368h-9.219v2.642h5.582L134.363,42.2
		L134.363,42.2z M155.791,26.239h-2.896l-1.924,2.431h2.516L155.791,26.239L155.791,26.239z M155.158,44.59h3.297l-4.207-15.011
		h-3.996l-4.229,15.011h3.299l0.846-3.488h4.143L155.158,44.59L155.158,44.59z M150.738,38.754l1.057-4.419
		c0.17-0.697,0.316-1.29,0.424-2.156h0.041c0.127,0.867,0.275,1.459,0.424,2.156l1.057,4.419H150.738L150.738,38.754z
		 M166.289,29.579h-5.434V44.59h3.277v-5.561h2.18c3.063,0,4.861-1.733,4.861-4.778C171.174,31.333,169.375,29.579,166.289,29.579
		L166.289,29.579z M165.697,36.725h-1.564v-4.842h1.564c1.332,0,2.029,0.761,2.029,2.368
		C167.727,35.879,167.008,36.725,165.697,36.725L165.697,36.725z M180.867,44.59h3.297l-4.207-15.011h-3.996l-4.229,15.011h3.299
		l0.846-3.488h4.145L180.867,44.59L180.867,44.59z M176.449,38.754l1.057-4.419c0.168-0.697,0.316-1.29,0.422-2.156h0.041
		c0.129,0.867,0.275,1.459,0.424,2.156l1.057,4.419H176.449L176.449,38.754z M186.566,44.59h4.842c3.91,0,6.32-2.199,6.32-7.527
		c0-5.263-2.389-7.483-6.279-7.483h-4.883V44.59L186.566,44.59z M189.844,42.2V31.968h1.584c1.969,0,2.896,1.353,2.896,5.095
		c0,3.298-0.992,5.138-2.916,5.138H189.844L189.844,42.2z M205.936,44.949c3.721,0,5.963-2.263,5.963-7.865
		c0-5.624-2.242-7.886-5.963-7.886c-3.742,0-5.982,2.262-5.982,7.886C199.953,42.686,202.193,44.949,205.936,44.949L205.936,44.949z
		 M205.936,42.37c-1.648,0-2.6-1.227-2.6-5.286c0-4.101,0.951-5.285,2.6-5.285c1.629,0,2.559,1.184,2.559,5.285
		C208.494,41.143,207.564,42.37,205.936,42.37L205.936,42.37z M223.66,26.344h-2.451l-1.227,1.5l-1.248-1.5h-2.451l2.008,2.431
		h3.361L223.66,26.344L223.66,26.344z M220.023,44.949c3.15,0,5.201-1.882,5.457-5.434l-3.236-0.698
		c-0.148,2.559-0.908,3.489-2.197,3.489c-1.629,0-2.518-1.227-2.518-5.244c0-4.017,0.953-5.221,2.494-5.221
		c1.375,0,2.072,0.761,2.18,3.467l3.254-0.592c-0.084-3.679-2.133-5.497-5.41-5.497c-3.596,0-5.879,2.029-5.879,7.864
		C214.168,43.003,216.219,44.949,220.023,44.949L220.023,44.949z M231.553,42.115V38.12h5.01v-2.452h-5.01v-3.616h5.328v-2.473
		h-8.605V44.59h8.754v-2.474H231.553L231.553,42.115z M244.432,44.949c3.301,0,5.201-1.946,5.201-4.673
		c0-2.241-0.91-3.572-3.15-4.334l-2.156-0.719c-1.184-0.402-1.734-1.057-1.734-1.966c0-0.951,0.697-1.586,1.797-1.586
		c1.291,0,2.285,0.825,2.707,2.686l2.664-1.332c-0.613-2.706-2.535-3.805-5.242-3.805c-2.961,0-5.053,1.627-5.053,4.376
		c0,2.114,0.994,3.658,3.127,4.333l2.156,0.676c1.248,0.381,1.65,0.973,1.65,1.988c0,1.035-0.678,1.733-1.838,1.733
		c-1.523,0-2.393-0.93-2.877-2.897l-2.877,1.27C239.506,43.427,241.387,44.949,244.432,44.949L244.432,44.949z M259.891,44.59h3.635
		l-4.186-8.985l3.996-6.025h-3.596l-4.123,6.786v-6.786h-3.275V44.59h3.275v-4.376l1.439-2.22L259.891,44.59L259.891,44.59z
		 M275.152,26.239h-2.896l-1.924,2.431h2.516L275.152,26.239L275.152,26.239z M274.52,44.59h3.297l-4.207-15.011h-3.994
		l-4.23,15.011h3.299l0.846-3.488h4.143L274.52,44.59L274.52,44.59z M270.1,38.754l1.059-4.419c0.168-0.697,0.316-1.29,0.422-2.156
		h0.043c0.125,0.867,0.273,1.459,0.424,2.156l1.055,4.419H270.1L270.1,38.754z"/>
</g>
</svg>
